<mxfile host="app.diagrams.net" agent="Mozilla/5.0 (Windows NT 10.0; Win64; x64) AppleWebKit/537.36 (KHTML, like Gecko) Chrome/128.0.0.0 Safari/537.36" version="24.7.12">
  <diagram name="Página-1" id="nyKuOgUTFun6SCa8rSzU">
    <mxGraphModel dx="3217" dy="1287" grid="1" gridSize="10" guides="1" tooltips="1" connect="1" arrows="1" fold="1" page="1" pageScale="1" pageWidth="827" pageHeight="1169" math="0" shadow="0">
      <root>
        <mxCell id="0" />
        <mxCell id="1" parent="0" />
        <mxCell id="nwlU-YDam0vRjaBJBYIT-4" value="ARQUETIPOS" style="swimlane;horizontal=0;whiteSpace=wrap;html=1;" parent="1" vertex="1">
          <mxGeometry x="-390" y="120" width="380" height="850" as="geometry">
            <mxRectangle x="-390" y="120" width="40" height="240" as="alternateBounds" />
          </mxGeometry>
        </mxCell>
        <object placeholders="1" c4Name="Client Aplication- Chat" c4Type="Container" c4Technology="Angular" c4Description="Web, Mobile, Desktop&quot; y &quot;WebSocket/HTTP Connection (via SignalR)" label="&lt;font style=&quot;font-size: 16px&quot;&gt;&lt;b&gt;%c4Name%&lt;/b&gt;&lt;/font&gt;&lt;div&gt;[%c4Type%:&amp;nbsp;%c4Technology%]&lt;/div&gt;&lt;br&gt;&lt;div&gt;&lt;font style=&quot;font-size: 11px&quot;&gt;&lt;font color=&quot;#E6E6E6&quot;&gt;%c4Description%&lt;/font&gt;&lt;/div&gt;" id="nwlU-YDam0vRjaBJBYIT-2">
          <mxCell style="shape=mxgraph.c4.webBrowserContainer2;whiteSpace=wrap;html=1;boundedLbl=1;rounded=0;labelBackgroundColor=none;strokeColor=#118ACD;fillColor=#23A2D9;strokeColor=#118ACD;strokeColor2=#0E7DAD;fontSize=12;fontColor=#ffffff;align=center;metaEdit=1;points=[[0.5,0,0],[1,0.25,0],[1,0.5,0],[1,0.75,0],[0.5,1,0],[0,0.75,0],[0,0.5,0],[0,0.25,0]];resizable=0;" parent="nwlU-YDam0vRjaBJBYIT-4" vertex="1">
            <mxGeometry x="60" y="305" width="240" height="160" as="geometry" />
          </mxCell>
        </object>
        <object placeholders="1" c4Name="ApiGateway" c4Type="SystemScopeBoundary" c4Application="Software System" label="&lt;font style=&quot;font-size: 16px&quot;&gt;&lt;b&gt;&lt;div style=&quot;text-align: left&quot;&gt;%c4Name%&lt;/div&gt;&lt;/b&gt;&lt;/font&gt;&lt;div style=&quot;text-align: left&quot;&gt;[%c4Application%]&lt;/div&gt;" id="nwlU-YDam0vRjaBJBYIT-12">
          <mxCell style="rounded=1;fontSize=11;whiteSpace=wrap;html=1;dashed=1;arcSize=20;fillColor=none;strokeColor=#3333FF;fontColor=#333333;labelBackgroundColor=none;align=left;verticalAlign=bottom;labelBorderColor=none;spacingTop=0;spacing=10;dashPattern=8 4;metaEdit=1;rotatable=0;perimeter=rectanglePerimeter;noLabel=0;labelPadding=0;allowArrows=0;connectable=0;expand=0;recursiveResize=0;editable=1;pointerEvents=0;absoluteArcSize=1;points=[[0.25,0,0],[0.5,0,0],[0.75,0,0],[1,0.25,0],[1,0.5,0],[1,0.75,0],[0.75,1,0],[0.5,1,0],[0.25,1,0],[0,0.75,0],[0,0.5,0],[0,0.25,0]];" parent="1" vertex="1">
            <mxGeometry x="140" y="560" width="290" height="410" as="geometry" />
          </mxCell>
        </object>
        <mxCell id="nwlU-YDam0vRjaBJBYIT-18" style="edgeStyle=orthogonalEdgeStyle;rounded=0;orthogonalLoop=1;jettySize=auto;html=1;" parent="1" source="nwlU-YDam0vRjaBJBYIT-13" target="nwlU-YDam0vRjaBJBYIT-17" edge="1">
          <mxGeometry relative="1" as="geometry" />
        </mxCell>
        <mxCell id="nwlU-YDam0vRjaBJBYIT-73" value="enrutar" style="edgeLabel;html=1;align=center;verticalAlign=middle;resizable=0;points=[];" parent="nwlU-YDam0vRjaBJBYIT-18" vertex="1" connectable="0">
          <mxGeometry x="0.1195" y="2" relative="1" as="geometry">
            <mxPoint as="offset" />
          </mxGeometry>
        </mxCell>
        <object placeholders="1" c4Name="API Gateway / Load Balancer      " c4Type="Software System" c4Description="Apigateway que usa como herramienta APISIX" label="&lt;font style=&quot;font-size: 16px&quot;&gt;&lt;b&gt;%c4Name%&lt;/b&gt;&lt;/font&gt;&lt;div&gt;[%c4Type%]&lt;/div&gt;&lt;br&gt;&lt;div&gt;&lt;font style=&quot;font-size: 11px&quot;&gt;&lt;font color=&quot;#cccccc&quot;&gt;%c4Description%&lt;/font&gt;&lt;/div&gt;" id="nwlU-YDam0vRjaBJBYIT-13">
          <mxCell style="rounded=1;whiteSpace=wrap;html=1;labelBackgroundColor=none;fillColor=#1061B0;fontColor=#ffffff;align=center;arcSize=10;strokeColor=#0D5091;metaEdit=1;resizable=0;points=[[0.25,0,0],[0.5,0,0],[0.75,0,0],[1,0.25,0],[1,0.5,0],[1,0.75,0],[0.75,1,0],[0.5,1,0],[0.25,1,0],[0,0.75,0],[0,0.5,0],[0,0.25,0]];" parent="1" vertex="1">
            <mxGeometry x="165" y="670" width="240" height="120" as="geometry" />
          </mxCell>
        </object>
        <mxCell id="nwlU-YDam0vRjaBJBYIT-15" style="edgeStyle=orthogonalEdgeStyle;rounded=0;orthogonalLoop=1;jettySize=auto;html=1;exitX=1;exitY=0.75;exitDx=0;exitDy=0;exitPerimeter=0;" parent="1" source="nwlU-YDam0vRjaBJBYIT-2" target="nwlU-YDam0vRjaBJBYIT-13" edge="1">
          <mxGeometry relative="1" as="geometry" />
        </mxCell>
        <mxCell id="nwlU-YDam0vRjaBJBYIT-72" value="llamado" style="edgeLabel;html=1;align=center;verticalAlign=middle;resizable=0;points=[];" parent="nwlU-YDam0vRjaBJBYIT-15" vertex="1" connectable="0">
          <mxGeometry x="-0.0516" y="1" relative="1" as="geometry">
            <mxPoint as="offset" />
          </mxGeometry>
        </mxCell>
        <object placeholders="1" c4Name="API Backend Services" c4Type="ContainerScopeBoundary" c4Application="Container" label="&lt;font style=&quot;font-size: 16px&quot;&gt;&lt;b&gt;&lt;div style=&quot;text-align: left&quot;&gt;%c4Name%&lt;/div&gt;&lt;/b&gt;&lt;/font&gt;&lt;div style=&quot;text-align: left&quot;&gt;[%c4Application%]&lt;/div&gt;" id="nwlU-YDam0vRjaBJBYIT-16">
          <mxCell style="rounded=1;fontSize=11;whiteSpace=wrap;html=1;dashed=1;arcSize=20;fillColor=none;strokeColor=#FF0000;fontColor=#333333;labelBackgroundColor=none;align=left;verticalAlign=bottom;labelBorderColor=none;spacingTop=0;spacing=10;dashPattern=8 4;metaEdit=1;rotatable=0;perimeter=rectanglePerimeter;noLabel=0;labelPadding=0;allowArrows=0;connectable=0;expand=0;recursiveResize=0;editable=1;pointerEvents=0;absoluteArcSize=1;points=[[0.25,0,0],[0.5,0,0],[0.75,0,0],[1,0.25,0],[1,0.5,0],[1,0.75,0],[0.75,1,0],[0.5,1,0],[0.25,1,0],[0,0.75,0],[0,0.5,0],[0,0.25,0]];" parent="1" vertex="1">
            <mxGeometry x="510" y="560" width="1580" height="410" as="geometry" />
          </mxCell>
        </object>
        <mxCell id="nwlU-YDam0vRjaBJBYIT-23" style="edgeStyle=orthogonalEdgeStyle;rounded=0;orthogonalLoop=1;jettySize=auto;html=1;entryX=0.234;entryY=1;entryDx=0;entryDy=0;entryPerimeter=0;" parent="1" source="nwlU-YDam0vRjaBJBYIT-17" target="nwlU-YDam0vRjaBJBYIT-54" edge="1">
          <mxGeometry relative="1" as="geometry">
            <Array as="points">
              <mxPoint x="675" y="520" />
              <mxPoint x="1110" y="520" />
              <mxPoint x="1110" y="400" />
              <mxPoint x="1280" y="400" />
            </Array>
          </mxGeometry>
        </mxCell>
        <mxCell id="nwlU-YDam0vRjaBJBYIT-74" value="enviar" style="edgeLabel;html=1;align=center;verticalAlign=middle;resizable=0;points=[];" parent="nwlU-YDam0vRjaBJBYIT-23" vertex="1" connectable="0">
          <mxGeometry x="-0.5572" y="-5" relative="1" as="geometry">
            <mxPoint as="offset" />
          </mxGeometry>
        </mxCell>
        <mxCell id="nwlU-YDam0vRjaBJBYIT-32" style="edgeStyle=orthogonalEdgeStyle;rounded=0;orthogonalLoop=1;jettySize=auto;html=1;entryX=0.5;entryY=0;entryDx=0;entryDy=0;entryPerimeter=0;" parent="1" source="nwlU-YDam0vRjaBJBYIT-17" target="nwlU-YDam0vRjaBJBYIT-41" edge="1">
          <mxGeometry relative="1" as="geometry">
            <mxPoint x="1170" y="820" as="targetPoint" />
            <Array as="points">
              <mxPoint x="780" y="640" />
              <mxPoint x="1375" y="640" />
            </Array>
          </mxGeometry>
        </mxCell>
        <mxCell id="nwlU-YDam0vRjaBJBYIT-75" value="guardar y obtener" style="edgeLabel;html=1;align=center;verticalAlign=middle;resizable=0;points=[];" parent="nwlU-YDam0vRjaBJBYIT-32" vertex="1" connectable="0">
          <mxGeometry x="-0.3542" y="-2" relative="1" as="geometry">
            <mxPoint as="offset" />
          </mxGeometry>
        </mxCell>
        <object placeholders="1" c4Name="Mensajería Service" c4Type="Container" c4Technology="C#" c4Description="Description of microservice type container role/responsibility." label="&lt;font style=&quot;font-size: 16px&quot;&gt;&lt;b&gt;%c4Name%&lt;/b&gt;&lt;/font&gt;&lt;div&gt;[%c4Type%:&amp;nbsp;%c4Technology%]&lt;/div&gt;&lt;br&gt;&lt;div&gt;&lt;font style=&quot;font-size: 11px&quot;&gt;&lt;font color=&quot;#E6E6E6&quot;&gt;%c4Description%&lt;/font&gt;&lt;/div&gt;" id="nwlU-YDam0vRjaBJBYIT-17">
          <mxCell style="shape=hexagon;size=50;perimeter=hexagonPerimeter2;whiteSpace=wrap;html=1;fixedSize=1;rounded=1;labelBackgroundColor=none;fillColor=#23A2D9;fontSize=12;fontColor=#ffffff;align=center;strokeColor=#0E7DAD;metaEdit=1;points=[[0.5,0,0],[1,0.25,0],[1,0.5,0],[1,0.75,0],[0.5,1,0],[0,0.75,0],[0,0.5,0],[0,0.25,0]];resizable=1;" parent="1" vertex="1">
            <mxGeometry x="560" y="680" width="230" height="170" as="geometry" />
          </mxCell>
        </object>
        <object placeholders="1" c4Name="WebSocket/HTTP" c4Type="SystemScopeBoundary" c4Application="Software System" label="&lt;font style=&quot;font-size: 16px&quot;&gt;&lt;b&gt;&lt;div style=&quot;text-align: left&quot;&gt;%c4Name%&lt;/div&gt;&lt;/b&gt;&lt;/font&gt;&lt;div style=&quot;text-align: left&quot;&gt;[%c4Application%]&lt;/div&gt;" id="nwlU-YDam0vRjaBJBYIT-20">
          <mxCell style="rounded=1;fontSize=11;whiteSpace=wrap;html=1;dashed=1;arcSize=20;fillColor=none;strokeColor=#33FF33;fontColor=#333333;labelBackgroundColor=none;align=left;verticalAlign=bottom;labelBorderColor=none;spacingTop=0;spacing=10;dashPattern=8 4;metaEdit=1;rotatable=0;perimeter=rectanglePerimeter;noLabel=0;labelPadding=0;allowArrows=0;connectable=0;expand=0;recursiveResize=0;editable=1;pointerEvents=0;absoluteArcSize=1;points=[[0.25,0,0],[0.5,0,0],[0.75,0,0],[1,0.25,0],[1,0.5,0],[1,0.75,0],[0.75,1,0],[0.5,1,0],[0.25,1,0],[0,0.75,0],[0,0.5,0],[0,0.25,0]];" parent="1" vertex="1">
            <mxGeometry x="510" y="120" width="390" height="360" as="geometry" />
          </mxCell>
        </object>
        <object placeholders="1" c4Name="SignalR Service" c4Description="Gestión de conexiones en tiempo real" label="&lt;font style=&quot;font-size: 16px&quot;&gt;&lt;b&gt;%c4Name%&lt;/b&gt;&lt;/font&gt;&lt;div&gt;[%c4Type%]&lt;/div&gt;&lt;br&gt;&lt;div&gt;&lt;font style=&quot;font-size: 11px&quot;&gt;&lt;font color=&quot;#cccccc&quot;&gt;%c4Description%&lt;/font&gt;&lt;/div&gt;" c4Type="Componente" id="nwlU-YDam0vRjaBJBYIT-21">
          <mxCell style="rounded=1;whiteSpace=wrap;html=1;labelBackgroundColor=none;fillColor=#8C8496;fontColor=#ffffff;align=center;arcSize=10;strokeColor=#736782;metaEdit=1;resizable=1;points=[[0.25,0,0],[0.5,0,0],[0.75,0,0],[1,0.25,0],[1,0.5,0],[1,0.75,0],[0.75,1,0],[0.5,1,0],[0.25,1,0],[0,0.75,0],[0,0.5,0],[0,0.25,0]];" parent="1" vertex="1">
            <mxGeometry x="630" y="230" width="150" height="120" as="geometry" />
          </mxCell>
        </object>
        <mxCell id="nwlU-YDam0vRjaBJBYIT-29" style="edgeStyle=orthogonalEdgeStyle;rounded=0;orthogonalLoop=1;jettySize=auto;html=1;entryX=0;entryY=0.25;entryDx=0;entryDy=0;entryPerimeter=0;flowAnimation=1;exitX=0.981;exitY=0.122;exitDx=0;exitDy=0;exitPerimeter=0;" parent="1" source="nwlU-YDam0vRjaBJBYIT-2" target="nwlU-YDam0vRjaBJBYIT-21" edge="1">
          <mxGeometry relative="1" as="geometry">
            <mxPoint x="60.000000000000455" y="380" as="sourcePoint" />
            <mxPoint x="337.50000000000045" y="-70" as="targetPoint" />
          </mxGeometry>
        </mxCell>
        <mxCell id="nwlU-YDam0vRjaBJBYIT-88" value="Conectar" style="edgeLabel;html=1;align=center;verticalAlign=middle;resizable=0;points=[];" parent="nwlU-YDam0vRjaBJBYIT-29" vertex="1" connectable="0">
          <mxGeometry x="-0.0077" y="-1" relative="1" as="geometry">
            <mxPoint as="offset" />
          </mxGeometry>
        </mxCell>
        <object placeholders="1" c4Name="Repositorios" c4Type="ContainerScopeBoundary" c4Application="Container" label="&lt;font style=&quot;font-size: 16px&quot;&gt;&lt;b&gt;&lt;div style=&quot;text-align: left&quot;&gt;%c4Name%&lt;/div&gt;&lt;/b&gt;&lt;/font&gt;&lt;div style=&quot;text-align: left&quot;&gt;[%c4Application%]&lt;/div&gt;" id="nwlU-YDam0vRjaBJBYIT-30">
          <mxCell style="rounded=1;fontSize=11;whiteSpace=wrap;html=1;dashed=1;arcSize=20;fillColor=none;strokeColor=#FF00FF;fontColor=#333333;labelBackgroundColor=none;align=left;verticalAlign=bottom;labelBorderColor=none;spacingTop=0;spacing=10;dashPattern=8 4;metaEdit=1;rotatable=0;perimeter=rectanglePerimeter;noLabel=0;labelPadding=0;allowArrows=0;connectable=0;expand=0;recursiveResize=0;editable=1;pointerEvents=0;absoluteArcSize=1;points=[[0.25,0,0],[0.5,0,0],[0.75,0,0],[1,0.25,0],[1,0.5,0],[1,0.75,0],[0.75,1,0],[0.5,1,0],[0.25,1,0],[0,0.75,0],[0,0.5,0],[0,0.25,0]];" parent="1" vertex="1">
            <mxGeometry x="510" y="1010" width="940" height="210" as="geometry" />
          </mxCell>
        </object>
        <object placeholders="1" c4Name="Base de Datos usuarios" c4Type="Container" c4Technology="PostgreSQL" c4Description="Almacenamiento persistente de usuarios " label="&lt;font style=&quot;font-size: 16px&quot;&gt;&lt;b&gt;%c4Name%&lt;/b&gt;&lt;/font&gt;&lt;div&gt;[%c4Type%:&amp;nbsp;%c4Technology%]&lt;/div&gt;&lt;br&gt;&lt;div&gt;&lt;font style=&quot;font-size: 11px&quot;&gt;&lt;font color=&quot;#E6E6E6&quot;&gt;%c4Description%&lt;/font&gt;&lt;/div&gt;" id="nwlU-YDam0vRjaBJBYIT-31">
          <mxCell style="shape=cylinder3;size=15;whiteSpace=wrap;html=1;boundedLbl=1;rounded=0;labelBackgroundColor=none;fillColor=#23A2D9;fontSize=12;fontColor=#ffffff;align=center;strokeColor=#0E7DAD;metaEdit=1;points=[[0.5,0,0],[1,0.25,0],[1,0.5,0],[1,0.75,0],[0.5,1,0],[0,0.75,0],[0,0.5,0],[0,0.25,0]];resizable=1;" parent="1" vertex="1">
            <mxGeometry x="577.5" y="1049" width="195" height="120" as="geometry" />
          </mxCell>
        </object>
        <object placeholders="1" c4Name="Eventos" c4Type="SystemScopeBoundary" c4Application="Software System" label="&lt;font style=&quot;font-size: 16px&quot;&gt;&lt;b&gt;&lt;div style=&quot;text-align: left&quot;&gt;%c4Name%&lt;/div&gt;&lt;/b&gt;&lt;/font&gt;&lt;div style=&quot;text-align: left&quot;&gt;[%c4Application%]&lt;/div&gt;" id="nwlU-YDam0vRjaBJBYIT-34">
          <mxCell style="rounded=1;fontSize=11;whiteSpace=wrap;html=1;dashed=1;arcSize=20;fillColor=none;strokeColor=#B5739D;fontColor=#333333;labelBackgroundColor=none;align=left;verticalAlign=bottom;labelBorderColor=none;spacingTop=0;spacing=10;dashPattern=8 4;metaEdit=1;rotatable=0;perimeter=rectanglePerimeter;noLabel=0;labelPadding=0;allowArrows=0;connectable=0;expand=0;recursiveResize=0;editable=1;pointerEvents=0;absoluteArcSize=1;points=[[0.25,0,0],[0.5,0,0],[0.75,0,0],[1,0.25,0],[1,0.5,0],[1,0.75,0],[0.75,1,0],[0.5,1,0],[0.25,1,0],[0,0.75,0],[0,0.5,0],[0,0.25,0]];" parent="1" vertex="1">
            <mxGeometry x="970" y="120" width="640" height="360" as="geometry" />
          </mxCell>
        </object>
        <mxCell id="kYV0gNenm-wS1p1K6AcR-10" value="" style="edgeStyle=orthogonalEdgeStyle;rounded=0;orthogonalLoop=1;jettySize=auto;html=1;" parent="1" source="nwlU-YDam0vRjaBJBYIT-36" target="nwlU-YDam0vRjaBJBYIT-17" edge="1">
          <mxGeometry relative="1" as="geometry" />
        </mxCell>
        <mxCell id="kYV0gNenm-wS1p1K6AcR-15" value="enviar" style="edgeLabel;html=1;align=center;verticalAlign=middle;resizable=0;points=[];" parent="kYV0gNenm-wS1p1K6AcR-10" vertex="1" connectable="0">
          <mxGeometry x="0.1782" y="1" relative="1" as="geometry">
            <mxPoint as="offset" />
          </mxGeometry>
        </mxCell>
        <object placeholders="1" c4Name="Autenticación y Autorización" c4Type="Container" c4Technology="C#" c4Description="Description of microservice type container role/responsibility." label="&lt;font style=&quot;font-size: 16px&quot;&gt;&lt;b&gt;%c4Name%&lt;/b&gt;&lt;/font&gt;&lt;div&gt;[%c4Type%:&amp;nbsp;%c4Technology%]&lt;/div&gt;&lt;br&gt;&lt;div&gt;&lt;font style=&quot;font-size: 11px&quot;&gt;&lt;font color=&quot;#E6E6E6&quot;&gt;%c4Description%&lt;/font&gt;&lt;/div&gt;" id="nwlU-YDam0vRjaBJBYIT-36">
          <mxCell style="shape=hexagon;size=50;perimeter=hexagonPerimeter2;whiteSpace=wrap;html=1;fixedSize=1;rounded=1;labelBackgroundColor=none;fillColor=#23A2D9;fontSize=12;fontColor=#ffffff;align=center;strokeColor=#0E7DAD;metaEdit=1;points=[[0.5,0,0],[1,0.25,0],[1,0.5,0],[1,0.75,0],[0.5,1,0],[0,0.75,0],[0,0.5,0],[0,0.25,0]];resizable=1" parent="1" vertex="1">
            <mxGeometry x="910" y="680" width="283" height="170" as="geometry" />
          </mxCell>
        </object>
        <mxCell id="kYV0gNenm-wS1p1K6AcR-11" style="edgeStyle=orthogonalEdgeStyle;rounded=0;orthogonalLoop=1;jettySize=auto;html=1;exitX=0.5;exitY=1;exitDx=0;exitDy=0;exitPerimeter=0;" parent="1" source="nwlU-YDam0vRjaBJBYIT-41" target="kYV0gNenm-wS1p1K6AcR-3" edge="1">
          <mxGeometry relative="1" as="geometry" />
        </mxCell>
        <mxCell id="kYV0gNenm-wS1p1K6AcR-12" value="guardar y obtener" style="edgeLabel;html=1;align=center;verticalAlign=middle;resizable=0;points=[];" parent="kYV0gNenm-wS1p1K6AcR-11" vertex="1" connectable="0">
          <mxGeometry x="-0.4874" y="-1" relative="1" as="geometry">
            <mxPoint x="-1" as="offset" />
          </mxGeometry>
        </mxCell>
        <object placeholders="1" c4Name="Almacenamiento de Mensajes" c4Type="Container" c4Technology="C#" c4Description="Description of microservice type container role/responsibility." label="&lt;font style=&quot;font-size: 16px&quot;&gt;&lt;b&gt;%c4Name%&lt;/b&gt;&lt;/font&gt;&lt;div&gt;[%c4Type%:&amp;nbsp;%c4Technology%]&lt;/div&gt;&lt;br&gt;&lt;div&gt;&lt;font style=&quot;font-size: 11px&quot;&gt;&lt;font color=&quot;#E6E6E6&quot;&gt;%c4Description%&lt;/font&gt;&lt;/div&gt;" id="nwlU-YDam0vRjaBJBYIT-41">
          <mxCell style="shape=hexagon;size=50;perimeter=hexagonPerimeter2;whiteSpace=wrap;html=1;fixedSize=1;rounded=1;labelBackgroundColor=none;fillColor=#23A2D9;fontSize=12;fontColor=#ffffff;align=center;strokeColor=#0E7DAD;metaEdit=1;points=[[0.5,0,0],[1,0.25,0],[1,0.5,0],[1,0.75,0],[0.5,1,0],[0,0.75,0],[0,0.5,0],[0,0.25,0]];resizable=1" parent="1" vertex="1">
            <mxGeometry x="1220" y="700" width="310" height="170" as="geometry" />
          </mxCell>
        </object>
        <object placeholders="1" c4Name="Redis Cache Mensajes" c4Type="Component" c4Technology="(Azure Redis Cache)" c4Description="Gestión de conexiones y caché de mensajes" label="&lt;font style=&quot;font-size: 16px&quot;&gt;&lt;b&gt;%c4Name%&lt;/b&gt;&lt;/font&gt;&lt;div&gt;[%c4Type%: %c4Technology%]&lt;/div&gt;&lt;br&gt;&lt;div&gt;&lt;font style=&quot;font-size: 11px&quot;&gt;%c4Description%&lt;/font&gt;&lt;/div&gt;" id="nwlU-YDam0vRjaBJBYIT-54">
          <mxCell style="rounded=1;whiteSpace=wrap;html=1;labelBackgroundColor=none;fillColor=#63BEF2;fontColor=#ffffff;align=center;arcSize=6;strokeColor=#2086C9;metaEdit=1;resizable=1;points=[[0.25,0,0],[0.5,0,0],[0.75,0,0],[1,0.25,0],[1,0.5,0],[1,0.75,0],[0.75,1,0],[0.5,1,0],[0.25,1,0],[0,0.75,0],[0,0.5,0],[0,0.25,0]];" parent="1" vertex="1">
            <mxGeometry x="1210" y="200" width="300" height="150" as="geometry" />
          </mxCell>
        </object>
        <mxCell id="nwlU-YDam0vRjaBJBYIT-56" style="edgeStyle=orthogonalEdgeStyle;rounded=0;orthogonalLoop=1;jettySize=auto;html=1;entryX=1;entryY=0.25;entryDx=0;entryDy=0;entryPerimeter=0;flowAnimation=1;exitX=0;exitY=0.25;exitDx=0;exitDy=0;exitPerimeter=0;" parent="1" target="nwlU-YDam0vRjaBJBYIT-2" edge="1">
          <mxGeometry relative="1" as="geometry">
            <Array as="points">
              <mxPoint x="610" y="250" />
              <mxPoint x="610" y="400" />
              <mxPoint x="480" y="400" />
              <mxPoint x="480" y="465" />
            </Array>
            <mxPoint x="632.5000000000005" y="250" as="sourcePoint" />
            <mxPoint x="-80" y="495" as="targetPoint" />
          </mxGeometry>
        </mxCell>
        <mxCell id="nwlU-YDam0vRjaBJBYIT-87" value="notificar" style="edgeLabel;html=1;align=center;verticalAlign=middle;resizable=0;points=[];" parent="nwlU-YDam0vRjaBJBYIT-56" vertex="1" connectable="0">
          <mxGeometry x="-0.5768" y="2" relative="1" as="geometry">
            <mxPoint as="offset" />
          </mxGeometry>
        </mxCell>
        <object placeholders="1" c4Name="Base de Datos contactos" c4Type="Container" c4Technology="PostgreSQL" c4Description="Almacenamiento persistente de usuarios contactos de los usurios" label="&lt;font style=&quot;font-size: 16px&quot;&gt;&lt;b&gt;%c4Name%&lt;/b&gt;&lt;/font&gt;&lt;div&gt;[%c4Type%:&amp;nbsp;%c4Technology%]&lt;/div&gt;&lt;br&gt;&lt;div&gt;&lt;font style=&quot;font-size: 11px&quot;&gt;&lt;font color=&quot;#E6E6E6&quot;&gt;%c4Description%&lt;/font&gt;&lt;/div&gt;" id="nwlU-YDam0vRjaBJBYIT-57">
          <mxCell style="shape=cylinder3;size=15;whiteSpace=wrap;html=1;boundedLbl=1;rounded=0;labelBackgroundColor=none;fillColor=#23A2D9;fontSize=12;fontColor=#ffffff;align=center;strokeColor=#0E7DAD;metaEdit=1;points=[[0.5,0,0],[1,0.25,0],[1,0.5,0],[1,0.75,0],[0.5,1,0],[0,0.75,0],[0,0.5,0],[0,0.25,0]];resizable=1;" parent="1" vertex="1">
            <mxGeometry x="830" y="1049" width="195" height="120" as="geometry" />
          </mxCell>
        </object>
        <mxCell id="nwlU-YDam0vRjaBJBYIT-59" style="edgeStyle=orthogonalEdgeStyle;rounded=0;orthogonalLoop=1;jettySize=auto;html=1;entryX=0.5;entryY=0;entryDx=0;entryDy=0;entryPerimeter=0;exitX=0.5;exitY=1;exitDx=0;exitDy=0;exitPerimeter=0;" parent="1" source="nwlU-YDam0vRjaBJBYIT-36" target="nwlU-YDam0vRjaBJBYIT-31" edge="1">
          <mxGeometry relative="1" as="geometry">
            <Array as="points">
              <mxPoint x="1000" y="850" />
              <mxPoint x="1000" y="990" />
              <mxPoint x="675" y="990" />
            </Array>
          </mxGeometry>
        </mxCell>
        <mxCell id="nwlU-YDam0vRjaBJBYIT-81" value="guardar y obtener" style="edgeLabel;html=1;align=center;verticalAlign=middle;resizable=0;points=[];" parent="nwlU-YDam0vRjaBJBYIT-59" vertex="1" connectable="0">
          <mxGeometry x="-0.8632" relative="1" as="geometry">
            <mxPoint y="1" as="offset" />
          </mxGeometry>
        </mxCell>
        <object placeholders="1" c4Name="Base de Datos Mensajes" c4Type="Container" c4Technology="CosmosDB" c4Description="Almacenamiento persistente de mensajes" label="&lt;font style=&quot;font-size: 16px&quot;&gt;&lt;b&gt;%c4Name%&lt;/b&gt;&lt;/font&gt;&lt;div&gt;[%c4Type%:&amp;nbsp;%c4Technology%]&lt;/div&gt;&lt;br&gt;&lt;div&gt;&lt;font style=&quot;font-size: 11px&quot;&gt;&lt;font color=&quot;#E6E6E6&quot;&gt;%c4Description%&lt;/font&gt;&lt;/div&gt;" id="kYV0gNenm-wS1p1K6AcR-3">
          <mxCell style="shape=cylinder3;size=15;whiteSpace=wrap;html=1;boundedLbl=1;rounded=0;labelBackgroundColor=none;fillColor=#23A2D9;fontSize=12;fontColor=#ffffff;align=center;strokeColor=#0E7DAD;metaEdit=1;points=[[0.5,0,0],[1,0.25,0],[1,0.5,0],[1,0.75,0],[0.5,1,0],[0,0.75,0],[0,0.5,0],[0,0.25,0]];resizable=1;" parent="1" vertex="1">
            <mxGeometry x="1100" y="1049" width="195" height="120" as="geometry" />
          </mxCell>
        </object>
        <mxCell id="kYV0gNenm-wS1p1K6AcR-4" style="edgeStyle=orthogonalEdgeStyle;rounded=0;orthogonalLoop=1;jettySize=auto;html=1;exitX=1;exitY=0.25;exitDx=0;exitDy=0;exitPerimeter=0;entryX=0.5;entryY=0;entryDx=0;entryDy=0;entryPerimeter=0;" parent="1" source="nwlU-YDam0vRjaBJBYIT-13" target="nwlU-YDam0vRjaBJBYIT-36" edge="1">
          <mxGeometry relative="1" as="geometry">
            <Array as="points">
              <mxPoint x="550" y="700" />
              <mxPoint x="550" y="660" />
              <mxPoint x="969" y="660" />
            </Array>
          </mxGeometry>
        </mxCell>
        <mxCell id="kYV0gNenm-wS1p1K6AcR-5" value="enrutar" style="edgeLabel;html=1;align=center;verticalAlign=middle;resizable=0;points=[];" parent="kYV0gNenm-wS1p1K6AcR-4" vertex="1" connectable="0">
          <mxGeometry x="-0.2534" y="5" relative="1" as="geometry">
            <mxPoint as="offset" />
          </mxGeometry>
        </mxCell>
        <mxCell id="kYV0gNenm-wS1p1K6AcR-6" style="edgeStyle=orthogonalEdgeStyle;rounded=0;orthogonalLoop=1;jettySize=auto;html=1;exitX=0.75;exitY=0;exitDx=0;exitDy=0;exitPerimeter=0;entryX=0.583;entryY=0.003;entryDx=0;entryDy=0;entryPerimeter=0;" parent="1" source="nwlU-YDam0vRjaBJBYIT-13" target="nwlU-YDam0vRjaBJBYIT-41" edge="1">
          <mxGeometry relative="1" as="geometry">
            <Array as="points">
              <mxPoint x="345" y="620" />
              <mxPoint x="1401" y="620" />
            </Array>
          </mxGeometry>
        </mxCell>
        <mxCell id="kYV0gNenm-wS1p1K6AcR-7" value="enrutar" style="edgeLabel;html=1;align=center;verticalAlign=middle;resizable=0;points=[];" parent="kYV0gNenm-wS1p1K6AcR-6" vertex="1" connectable="0">
          <mxGeometry x="-0.0221" y="2" relative="1" as="geometry">
            <mxPoint as="offset" />
          </mxGeometry>
        </mxCell>
        <mxCell id="kYV0gNenm-wS1p1K6AcR-8" value="obtiene" style="edgeStyle=orthogonalEdgeStyle;rounded=0;orthogonalLoop=1;jettySize=auto;html=1;exitX=1;exitY=0.25;exitDx=0;exitDy=0;exitPerimeter=0;entryX=0;entryY=0.25;entryDx=0;entryDy=0;entryPerimeter=0;" parent="1" source="nwlU-YDam0vRjaBJBYIT-21" target="nwlU-YDam0vRjaBJBYIT-54" edge="1">
          <mxGeometry relative="1" as="geometry">
            <mxPoint x="690.0000000000005" y="252.5" as="sourcePoint" />
            <mxPoint x="1120" y="230" as="targetPoint" />
            <Array as="points">
              <mxPoint x="1040" y="260" />
              <mxPoint x="1040" y="238" />
            </Array>
          </mxGeometry>
        </mxCell>
        <mxCell id="kYV0gNenm-wS1p1K6AcR-13" style="edgeStyle=orthogonalEdgeStyle;rounded=0;orthogonalLoop=1;jettySize=auto;html=1;exitX=0.5;exitY=1;exitDx=0;exitDy=0;exitPerimeter=0;entryX=0.5;entryY=0;entryDx=0;entryDy=0;entryPerimeter=0;" parent="1" source="nwlU-YDam0vRjaBJBYIT-17" target="nwlU-YDam0vRjaBJBYIT-57" edge="1">
          <mxGeometry relative="1" as="geometry">
            <Array as="points">
              <mxPoint x="710" y="850" />
              <mxPoint x="710" y="950" />
              <mxPoint x="927" y="950" />
            </Array>
          </mxGeometry>
        </mxCell>
        <mxCell id="kYV0gNenm-wS1p1K6AcR-14" value="enviar" style="edgeLabel;html=1;align=center;verticalAlign=middle;resizable=0;points=[];" parent="kYV0gNenm-wS1p1K6AcR-13" vertex="1" connectable="0">
          <mxGeometry x="0.021" y="4" relative="1" as="geometry">
            <mxPoint as="offset" />
          </mxGeometry>
        </mxCell>
      </root>
    </mxGraphModel>
  </diagram>
</mxfile>
